<svg xmlns="http://www.w3.org/2000/svg" viewBox="0 0 20 21" fill="none" strokeWidth="2" strokeLinecap="round" strokeLinejoin="round">
    <path d="M6.28711 1.09628L8.5141 0.5C8.5141 0.5 9.66133 3.95623 9.76195 5.15739C10.0012 8.0063 7.33005 10.5828 4.74723 10.2859C3.5276 10.1448 0 9.0136 0 9.0136L0.596318 6.78674L6.14232 8.27254L2.08221 4.21266L3.71288 2.58208L7.77299 6.64196L6.28711 1.09628Z" fill="#E14343"/>
    <path d="M20 9.0136C20 9.0136 16.4736 10.146 15.2528 10.2859C12.67 10.5828 9.99879 8.0063 10.2381 5.15739C10.3387 3.95623 11.4859 0.5 11.4859 0.5L13.7129 1.09628L12.227 6.64196L16.2871 2.58208L17.9178 4.21266L13.8577 8.27254L19.4037 6.78674L20 9.0136Z" fill="#E14343"/>
    <path d="M4.74723 10.7141C3.52637 10.854 0 11.9864 0 11.9864L0.596318 14.2133L6.14232 12.7275L2.08221 16.7873L3.71288 18.4179L7.77299 14.358L6.28711 19.9037L8.5141 20.5C8.5141 20.5 9.66133 17.0438 9.76195 15.8426C10.0012 12.9937 7.33005 10.4172 4.74723 10.7141Z" fill="#E14343"/>
    <path d="M11.4859 20.5C11.4859 20.5 10.3387 17.0438 10.2381 15.8426C9.99879 12.9937 12.67 10.4172 15.2528 10.7141C16.4724 10.8552 20 11.9864 20 11.9864L19.4037 14.2133L13.8577 12.7275L17.9178 16.7873L16.2871 18.4179L12.227 14.358L13.7129 19.9037L11.4859 20.5Z" fill="#E14343"/>
</svg>